<svg t="1639037193763" class="icon" viewBox="0 0 1024 1024" version="1.1" xmlns="http://www.w3.org/2000/svg" p-id="6117" data-darkreader-inline-fill="" width="32" height="32"><path d="M249.6 467.2v89.6l67.2-44.8-67.2-44.8zM483.2 400v-128L272 416l96 64 115.2-80zM752 416l-214.4-140.8v128l118.4 80 96-67.2zM272 608l214.4 140.8v-128L368 544l-96 64z m265.6 16v128L752 611.2l-96-64-118.4 76.8zM512 448l-96 64 96 64 96-64-96-64z m0-448C230.4 0 0 230.4 0 512s230.4 512 512 512 512-230.4 512-512S793.6 0 512 0z m316.8 608v16l-288 192c-3.2 3.2-9.6 3.2-16 3.2s-9.6 0-16-3.2l-288-192v-3.2-6.4-201.6-6.4-3.2-3.2l288-192c9.6-6.4 22.4-6.4 28.8 0l288 192v16l3.2 192z m-54.4-51.2v-89.6L707.2 512l67.2 44.8z" fill="#1296db" p-id="6118" data-darkreader-inline-fill="" style="--darkreader-inline-fill:#5b6367;"></path></svg>